<?xml version="1.0" encoding="utf-8"?>
<!-- Generator: Adobe Illustrator 25.1.0, SVG Export Plug-In . SVG Version: 6.00 Build 0)  -->
<svg version="1.1" id="Layer_1" xmlns="http://www.w3.org/2000/svg" xmlns:xlink="http://www.w3.org/1999/xlink" x="0px" y="0px"
	 viewBox="0 0 200 200" style="enable-background:new 0 0 200 200;" xml:space="preserve">
<style type="text/css">
	.st0{fill:none;stroke:#000000;stroke-miterlimit:10;}
	.st1{fill:none;}
	.st2{font-family:'AgencyFB-Bold';}
	.st3{font-size:34px;}
	.st4{letter-spacing:8;}
</style>
<path class="st0" d="M147.8,2"/>
<g>
	<g>
		<path d="M173.8,158.2c-9.4,13.9-24.5,24.6-41.8,29.7c-8.7,2.6-17.8,3.8-27.1,3.5c-9.3-0.2-18.6-2-27.5-5.1
			c-4.4-1.6-8.8-3.6-13-5.8c-4.2-2.3-8.2-4.9-12-7.8c-7.7-5.8-14.3-12.8-20-20.7c-5.6-7.9-9.9-16.8-12.9-26
			c-1.5-4.6-2.5-9.4-3.3-14.2c-0.7-4.8-1.1-9.7-1.2-14.6c0.1-9.7,1.5-19.5,4.4-28.8c1.5-4.6,3.3-9.2,5.4-13.5
			c2.2-4.3,4.5-8.6,7.4-12.5c5.6-7.9,12.3-15,19.9-20.8c3.8-2.9,7.8-5.6,12-7.8c4.2-2.2,8.5-4.2,13-5.8c4.4-1.6,9-2.9,13.6-3.7
			c4.6-0.8,9.2-1.5,13.9-1.5c1.2-0.1,2.3,0,3.5,0c1.2,0,2.3,0,3.4,0.1l3.4,0.2c0.6,0,1.2,0.1,1.8,0.2c0.6,0.1,1.2,0.1,1.8,0.2
			c4.8,0.7,9.2,1.8,13.4,3.2c8.5,2.9,16.3,6.8,23.5,11.6c3.6,2.4,7,5.1,10.1,8c3.1,3,6,6.1,8.3,9.6l-1.3,1.4
			c-5.9-5.4-12.8-9.7-20-13.1c-7.3-3.4-14.9-5.9-22.7-7.5c-3.9-0.8-7.9-1.4-11.8-1.5c-3.9-0.1-8,0.1-11.9,0.6
			c-7.9,0.9-15.7,3.1-22.9,6.2c-14.6,6.3-27.2,17.1-35.8,30.4c-8.7,13.3-13.3,29.1-13.2,45c-0.1,15.8,4.6,31.7,13.4,44.9
			c8.7,13.3,21.3,24,35.9,30.2c14.6,6.4,31.1,8.2,46.7,5.5c15.7-2.6,30.6-10,42.3-20.9L173.8,158.2z"/>
	</g>
	<g>
		<path class="st1" d="M167.4,49.5"/>
	</g>
	<path class="st0" d="M152.2,186.5"/>
	<g>
		<path d="M64.2,52.5C70.4,41.6,81.5,33,94.5,28.6c6.5-2.2,13.5-3.3,20.5-3.3c3.6-0.1,7.1,0.3,10.7,0.9c3.5,0.6,7.1,1.4,10.5,2.6
			c3.4,1.2,6.8,2.6,10.1,4.3c3.3,1.7,6.3,3.7,9.3,5.9c6,4.4,11.2,9.8,15.6,15.9c4.4,6.1,7.7,12.9,10.1,20.1
			c2.3,7.2,3.4,14.8,3.5,22.3c-0.1,7.5-1.2,15.1-3.5,22.3c-2.4,7.2-5.7,14-10.1,20.1c-4.4,6.1-9.6,11.5-15.6,15.9
			c-3,2.2-6.1,4.2-9.3,5.9c-3.3,1.7-6.6,3.1-10.1,4.3c-3.4,1.2-7,2-10.5,2.6c-3.5,0.6-7.1,0.9-10.6,0.9c-7.1,0-14-1.1-20.5-3.3
			c-13-4.4-24-13-30.3-23.8l1.3-1.4c8.5,7.9,19.4,13.2,30.8,15.1c11.4,2,23.3,0.6,33.9-4c10.6-4.6,19.7-12.3,26-22
			c6.3-9.6,9.7-21.1,9.6-32.5c0.1-11.5-3.3-22.9-9.6-32.5c-6.3-9.6-15.4-17.4-26-22c-10.6-4.6-22.5-6-33.9-4
			C84.9,40.6,74,45.9,65.5,53.9L64.2,52.5z"/>
	</g>
	<g>
		<path class="st1" d="M26.9,141.5"/>
	</g>
</g>
<text transform="matrix(1 0 0 1 45.3232 107.6311)" class="st2 st3 st4">RLPCA</text>
</svg>
